<svg width="64" height="64" viewBox="0 0 64 64" fill="none" xmlns="http://www.w3.org/2000/svg">
  <rect x="5" y="5" width="54" height="54" rx="16" fill="url(#paint0_linear_232_11)" />
  <rect x="5.75" y="5.75" width="52.5" height="52.5" rx="15.25" stroke="#1F2937" stroke-width="1.5" />
  <circle cx="21" cy="18" r="15" fill="url(#paint1_radial_232_11)" opacity="0.55" />
  <path
    d="M32 14C32 14 20 28.041 20 37.417C20 44.9199 25.82 51 33 51C40.18 51 46 44.9199 46 37.417C46 28.041 32 14 32 14Z"
    fill="url(#paint2_linear_232_11)"
  />
  <path
    d="M32 14C32 14 20 28.041 20 37.417C20 44.9199 25.82 51 33 51C40.18 51 46 44.9199 46 37.417C46 28.041 32 14 32 14Z"
    stroke="#ECFEFF"
    stroke-opacity="0.28"
    stroke-width="1.5"
    stroke-linejoin="round"
  />
  <path
    d="M26 39L30 35L34 37L39 31"
    stroke="#082F49"
    stroke-width="2.75"
    stroke-linecap="round"
    stroke-linejoin="round"
  />
  <path d="M26 23.5C23.35 27.0685 22 30.3445 22 34.25" stroke="white" stroke-width="2.5" stroke-linecap="round" opacity="0.9" />
  <defs>
    <linearGradient id="paint0_linear_232_11" x1="10" y1="8" x2="55" y2="58" gradientUnits="userSpaceOnUse">
      <stop stop-color="#111827" />
      <stop offset="1" stop-color="#0B1220" />
    </linearGradient>
    <radialGradient id="paint1_radial_232_11" cx="0" cy="0" r="1" gradientUnits="userSpaceOnUse" gradientTransform="translate(21 18) rotate(90) scale(15)">
      <stop stop-color="#22D3EE" />
      <stop offset="1" stop-color="#22D3EE" stop-opacity="0" />
    </radialGradient>
    <linearGradient id="paint2_linear_232_11" x1="23.5" y1="19" x2="43" y2="48" gradientUnits="userSpaceOnUse">
      <stop stop-color="#CFFAFE" />
      <stop offset="1" stop-color="#06B6D4" />
    </linearGradient>
  </defs>
</svg>
